# xmcd
#
# Track frame offsets: 
#        150
#        12869
#        25350
#        41119
#        53685
#        66789
#        82344
#        95881
#        112492
#        123179
#        136617
#        150349
#        163797
#        183385
#        194388
#        203076
#        216115
#        229369
#        243580
#        256299
#        272383
#        284788
#        297425
#        310697
#
# Disc length: 4319 seconds
#
# Revision: 0
# Processed by: cddbd v1.5.2PL0 Copyright (c) Steve Scherf et al.
# Submitted via: ExactAudioCopy v1.0b4
#
DISCID=6b10dd18
DTITLE=B.B. King - 08-The B.B. King Story (DLP)
DYEAR=1900
DGENRE=Blues
TTITLE0=Rock Me Baby
TTITLE1=Everyday I' ve The Blues
TTITLE2=My Own Fault
TTITLE3=Please Love Me
TTITLE4=I Woke Up This Morning
TTITLE5=Five Long Years
TTITLE6=You Upset Me Baby
TTITLE7=Blue Shadows
TTITLE8=Treat Me Right
TTITLE9=The Woman I Love
TTITLE10=You Know I Love You
TTITLE11=Sweet Angel
TTITLE12=Sweet Sixteen
TTITLE13=Eyesight To The Blind
TTITLE14=Beautician Blues
TTITLE15=Bad Luck
TTITLE16=Sneakin' Around
TTITLE17=The Jungle
TTITLE18=Troubles, Troubles, Troubles
TTITLE19=The Worst Thing In My Life
TTITLE20=Shot Gun Blues
TTITLE21=Sweet Thing
TTITLE22=3 O' Clock Blues
TTITLE23=Let Me Love You
EXTD=
EXTT0=
EXTT1=
EXTT2=
EXTT3=
EXTT4=
EXTT5=
EXTT6=
EXTT7=
EXTT8=
EXTT9=
EXTT10=
EXTT11=
EXTT12=
EXTT13=
EXTT14=
EXTT15=
EXTT16=
EXTT17=
EXTT18=
EXTT19=
EXTT20=
EXTT21=
EXTT22=
EXTT23=
PLAYORDER=
